<?xml version="1.0" standalone="no"?>
<!DOCTYPE svg PUBLIC "-//W3C//DTD SVG 20010904//EN"
 "http://www.w3.org/TR/2001/REC-SVG-20010904/DTD/svg10.dtd">
<svg version="1.0" xmlns="http://www.w3.org/2000/svg"
 width="260.000000pt" height="260.000000pt" viewBox="0 0 260.000000 260.000000"
 preserveAspectRatio="xMidYMid meet">
<metadata>
Created by potrace 1.11, written by Peter Selinger 2001-2013
</metadata>
<g transform="translate(0.000000,260.000000) scale(0.100000,-0.100000)"
fill="#000000" stroke="none">
<path d="M0 2278 l1 -323 24 40 c45 76 150 210 230 294 123 130 284 243 425
300 17 7 -81 10 -327 10 l-353 1 0 -322z"/>
<path d="M1205 2590 c3 -5 12 -10 18 -10 7 0 26 -13 42 -28 17 -15 50 -43 75
-62 63 -49 130 -119 141 -148 5 -13 13 -20 19 -17 5 3 10 -2 10 -12 0 -12 3
-14 8 -6 8 13 30 17 68 15 26 -2 132 -104 205 -197 163 -207 284 -450 389
-780 129 -407 180 -727 183 -1157 l2 -188 118 0 117 0 0 1011 0 1012 -36 86
c-57 137 -141 309 -197 403 l-52 87 -558 1 c-370 0 -556 -3 -552 -10z"/>
<path d="M1387 2184 c-3 -3 -17 -7 -31 -10 -15 -2 -52 -17 -84 -32 -52 -25
-58 -30 -64 -67 -19 -105 -2 -542 24 -645 11 -44 59 -168 78 -202 6 -10 10
-29 10 -44 0 -26 28 -134 35 -134 2 0 15 4 30 10 36 14 188 14 214 1 l21 -12
1 183 c1 345 1 373 -5 455 -4 45 -14 106 -22 135 -26 86 -129 348 -137 348 -1
0 -16 4 -34 9 -17 5 -34 7 -36 5z"/>
</g>
</svg>
